<svg xmlns="http://www.w3.org/2000/svg" width="28" height="28" viewBox="0 0 28 28">
  <path id="arrow-round-back" d="M25.425,11.3H9.06l7-6.7a2.79,2.79,0,0,0,0-3.812A2.494,2.494,0,0,0,12.535.672c-.041.038-.081.077-.119.119L.76,12.093A2.569,2.569,0,0,0,0,13.982v.035A2.568,2.568,0,0,0,.76,15.906l11.645,11.3a2.5,2.5,0,0,0,3.526.118c.04-.038.081-.077.119-.118a2.792,2.792,0,0,0,0-3.814l-7-6.7H25.417A2.639,2.639,0,0,0,28,14a2.612,2.612,0,0,0-2.524-2.7h-.049" transform="translate(0 0)" fill="#0a405c"/>
</svg>
