<svg xmlns="http://www.w3.org/2000/svg" xmlns:xlink="http://www.w3.org/1999/xlink" width="116" height="116" viewBox="0 0 116 116">
  <defs>
    <filter id="Ellipse_7" x="0" y="0" width="116" height="116" filterUnits="userSpaceOnUse">
      <feOffset dy="3" input="SourceAlpha"/>
      <feGaussianBlur stdDeviation="3" result="blur"/>
      <feFlood flood-opacity="0.161"/>
      <feComposite operator="in" in2="blur"/>
      <feComposite in="SourceGraphic"/>
    </filter>
  </defs>
  <g id="btn-gohome" transform="translate(9 6)">
    <g transform="matrix(1, 0, 0, 1, -9, -6)" filter="url(#Ellipse_7)">
      <circle id="Ellipse_7-2" data-name="Ellipse 7" cx="49" cy="49" r="49" transform="translate(9 6)" fill="#f5d75e" opacity="0.501"/>
    </g>
    <g id="icon-home" transform="translate(31 21)">
      <g id="Group_159718" data-name="Group 159718">
        <path id="Path_11978" data-name="Path 11978" d="M35.766,34.3l-5.951-5.246V23.412a.752.752,0,0,0-.761-.743H24.671a.752.752,0,0,0-.761.743v.744L18.82,19.7a.776.776,0,0,0-.99,0L.26,34.46a.72.72,0,0,0-.078,1.032.756.756,0,0,0,.574.254h3.98V47.518H31.878V35.582h3.379A.751.751,0,0,0,36,34.823a.734.734,0,0,0-.233-.519" transform="translate(0 -19.518)" fill="#0a405c"/>
        <path id="Path_11979" data-name="Path 11979" d="M50,5.98l3.612,3.665a.761.761,0,0,0,1.065,0L58.338,5.98a3.685,3.685,0,0,0,1.118-3.572A3.242,3.242,0,0,0,57.175.1a3.435,3.435,0,0,0-3.006.665,3.223,3.223,0,0,0-4.256.371,3.328,3.328,0,0,0-.076,4.679q.08.083.165.161" transform="translate(-35.916 10.575)" fill="#0a405c"/>
      </g>
    </g>
    <text id="回首頁" transform="translate(49 74)" fill="#0a405c" font-size="18" font-family="NotoSansTC-Medium, Noto Sans TC" font-weight="500"><tspan x="-27" y="0">回首頁</tspan></text>
  </g>
</svg>
